<svg width="144" height="144" viewBox="0 0 144 144" fill="none" xmlns="http://www.w3.org/2000/svg">
<g clip-path="url(#clip0)">
<g filter="url(#filter0_i)">
<path d="M139.055 87.0916C140.234 82.3114 134.069 79.9632 130.489 83.343C121.48 91.8482 109.226 98.9999 94.5 98.9999C67.7142 98.9999 46 77.2857 46 50.4999C46 35.6881 52.7683 23.6113 61.3618 14.5761C64.7711 10.9914 62.4464 4.80612 57.6479 6.00961C28.5487 13.308 7 39.6375 7 70.9999C7 108.003 36.9969 138 74 138C105.456 138 131.849 116.323 139.055 87.0916Z" fill="black"/>
</g>
<path d="M90.824 61.1527C91.6379 60.3678 92.9945 60.7313 93.3069 61.818L94.775 66.9245C94.8872 67.3149 95.153 67.643 95.5115 67.834L100.201 70.3317C101.199 70.8632 101.273 72.2657 100.336 72.8986L95.9328 75.8729C95.5962 76.1002 95.3662 76.4544 95.2954 76.8544L94.3691 82.0864C94.172 83.1997 92.8608 83.703 91.9694 83.0075L87.7801 79.7392C87.4599 79.4894 87.052 79.3801 86.6497 79.4363L81.3875 80.1721C80.2678 80.3287 79.3839 79.2372 79.7699 78.1745L81.5837 73.1803C81.7224 72.7985 81.7003 72.3768 81.5225 72.0117L79.1966 67.2344C78.7016 66.2179 79.4665 65.04 80.5965 65.0787L85.9068 65.2604C86.3127 65.2743 86.7069 65.123 86.9993 64.841L90.824 61.1527Z" fill="black" fill-opacity="0.12"/>
<path d="M66.5394 38.0422C66.6945 37.7561 67.0773 37.6921 67.317 37.9122L70.7793 41.0905C70.8485 41.1541 70.9342 41.1968 71.0266 41.2139L75.6483 42.0676C75.9684 42.1268 76.1475 42.471 76.0123 42.7671L74.0594 47.0421C74.0204 47.1275 74.0062 47.2222 74.0186 47.3154L74.6348 51.9747C74.6774 52.2973 74.4054 52.5741 74.082 52.537L69.4128 52.0008C69.3195 51.99 69.225 52.0058 69.1403 52.0463L64.8994 54.0722C64.6057 54.2125 64.2584 54.0393 64.1938 53.7203L63.2609 49.1139C63.2423 49.0218 63.1981 48.9368 63.1334 48.8687L59.8962 45.4615C59.672 45.2255 59.7294 44.8417 60.0128 44.6817L64.1055 42.371C64.1873 42.3248 64.2544 42.2565 64.2992 42.1739L66.5394 38.0422Z" fill="black" fill-opacity="0.13"/>
<g filter="url(#filter1_i)">
<path fill-rule="evenodd" clip-rule="evenodd" d="M129.762 57.2614C125.13 34.6574 108.973 19.5204 87.7716 14.8253L89.5461 6.81242C113.742 12.1706 132.486 29.6734 137.802 55.6139L129.762 57.2614Z" fill="#CCCCCC"/>
<path d="M142.515 52.6309L137.706 62.3349C136.867 64.0299 136.447 64.8773 135.819 65.2855C135.22 65.6751 134.492 65.8148 133.792 65.6749C133.057 65.5283 132.353 64.8967 130.945 63.6334L122.813 56.3371C120.76 54.4949 119.733 53.5738 119.557 52.6756C119.39 51.8231 119.637 50.9418 120.224 50.301C120.842 49.6257 122.198 49.3734 124.91 48.8688L137.85 46.4611C140.528 45.9627 141.867 45.7136 142.683 46.1163C143.458 46.4986 144.007 47.2245 144.164 48.0742C144.329 48.9694 143.724 50.1899 142.515 52.6309Z" fill="#CCCCCC"/>
<path d="M87.0787 20.6773L80.6855 11.966C79.5688 10.4444 79.0105 9.68361 78.9367 8.94019C78.8663 8.23069 79.0762 7.5218 79.5216 6.96505C79.9883 6.38169 80.8709 6.04762 82.636 5.37949L92.8311 1.5205C95.4052 0.546153 96.6923 0.0589785 97.569 0.314698C98.4012 0.557399 99.0686 1.18083 99.3674 1.99451C99.6822 2.85182 99.2838 4.16908 98.487 6.80359L94.6852 19.3739C93.8983 21.9756 93.5049 23.2765 92.7736 23.815C92.0794 24.3263 91.1846 24.4797 90.3598 24.2287C89.4909 23.9643 88.6868 22.8686 87.0787 20.6773Z" fill="#CCCCCC"/>
</g>
<path d="M98.1877 36.2517C98.4973 36.115 98.8504 36.3188 98.8868 36.6553L99.2114 39.6565C99.2227 39.7604 99.2662 39.8583 99.336 39.9362L101.349 42.1856C101.575 42.4378 101.49 42.8366 101.181 42.9752L98.4272 44.2114C98.3318 44.2542 98.2523 44.3258 98.1997 44.4162L96.6825 47.0259C96.5124 47.3185 96.1069 47.3611 95.8797 47.1103L93.853 44.8731C93.7828 44.7956 93.69 44.7421 93.5878 44.72L90.637 44.0834C90.3062 44.0121 90.1404 43.6396 90.3087 43.346L91.8101 40.7272C91.8621 40.6365 91.8844 40.5317 91.8738 40.4277L91.5673 37.4246C91.533 37.0879 91.836 36.8151 92.1672 36.8845L95.1218 37.5031C95.2242 37.5246 95.3306 37.5134 95.4263 37.4711L98.1877 36.2517Z" fill="black" fill-opacity="0.08"/>
</g>
<defs>
<filter id="filter0_i" x="0" y="5.85669" width="139.203" height="136.143" filterUnits="userSpaceOnUse" color-interpolation-filters="sRGB">
<feFlood flood-opacity="0" result="BackgroundImageFix"/>
<feBlend mode="normal" in="SourceGraphic" in2="BackgroundImageFix" result="shape"/>
<feColorMatrix in="SourceAlpha" type="matrix" values="0 0 0 0 0 0 0 0 0 0 0 0 0 0 0 0 0 0 127 0" result="hardAlpha"/>
<feOffset dx="-7" dy="4"/>
<feGaussianBlur stdDeviation="5"/>
<feComposite in2="hardAlpha" operator="arithmetic" k2="-1" k3="1"/>
<feColorMatrix type="matrix" values="0 0 0 0 1 0 0 0 0 1 0 0 0 0 1 0 0 0 0.15 0"/>
<feBlend mode="normal" in2="shape" result="effect1_innerShadow"/>
</filter>
<filter id="filter1_i" x="71.9233" y="0.247314" width="72.2672" height="69.4806" filterUnits="userSpaceOnUse" color-interpolation-filters="sRGB">
<feFlood flood-opacity="0" result="BackgroundImageFix"/>
<feBlend mode="normal" in="SourceGraphic" in2="BackgroundImageFix" result="shape"/>
<feColorMatrix in="SourceAlpha" type="matrix" values="0 0 0 0 0 0 0 0 0 0 0 0 0 0 0 0 0 0 127 0" result="hardAlpha"/>
<feOffset dx="-7" dy="4"/>
<feGaussianBlur stdDeviation="5"/>
<feComposite in2="hardAlpha" operator="arithmetic" k2="-1" k3="1"/>
<feColorMatrix type="matrix" values="0 0 0 0 1 0 0 0 0 1 0 0 0 0 1 0 0 0 0.15 0"/>
<feBlend mode="normal" in2="shape" result="effect1_innerShadow"/>
</filter>
<clipPath id="clip0">
<rect width="144" height="144" fill="white"/>
</clipPath>
</defs>
</svg>
