<svg width="144" height="144" viewBox="0 0 144 144" fill="none" xmlns="http://www.w3.org/2000/svg">
<g clip-path="url(#clip0)">
<g filter="url(#filter0_i)">
<path d="M139.055 87.0916C140.234 82.3114 134.069 79.9632 130.489 83.343C121.48 91.8482 109.226 98.9999 94.5 98.9999C67.7142 98.9999 46 77.2857 46 50.4999C46 35.6881 52.7683 23.6113 61.3618 14.5761C64.7711 10.9914 62.4464 4.80612 57.6479 6.00961C28.5487 13.308 7 39.6375 7 70.9999C7 108.003 36.9969 138 74 138C105.456 138 131.849 116.323 139.055 87.0916Z" fill="black"/>
</g>
<g filter="url(#filter1_i)">
<path fill-rule="evenodd" clip-rule="evenodd" d="M129.762 57.2614C125.13 34.6574 108.973 19.5204 87.7716 14.8253L89.5461 6.81242C113.742 12.1706 132.486 29.6734 137.802 55.6139L129.762 57.2614Z" fill="black"/>
<path d="M142.515 52.6309L137.706 62.3349C136.867 64.0299 136.447 64.8773 135.819 65.2855C135.22 65.6751 134.492 65.8148 133.792 65.6749C133.057 65.5283 132.353 64.8967 130.945 63.6334L122.813 56.3371C120.76 54.4949 119.733 53.5738 119.557 52.6756C119.39 51.8231 119.637 50.9418 120.224 50.301C120.842 49.6257 122.198 49.3734 124.91 48.8688L137.85 46.4611C140.528 45.9627 141.867 45.7136 142.683 46.1163C143.458 46.4986 144.007 47.2245 144.164 48.0742C144.329 48.9694 143.724 50.1899 142.515 52.6309Z" fill="black"/>
<path d="M87.0787 20.6773L80.6855 11.966C79.5688 10.4444 79.0105 9.68361 78.9367 8.94019C78.8663 8.23069 79.0762 7.5218 79.5216 6.96505C79.9883 6.38169 80.8709 6.04762 82.636 5.37949L92.8311 1.5205C95.4052 0.546153 96.6923 0.0589785 97.569 0.314698C98.4012 0.557399 99.0686 1.18083 99.3674 1.99451C99.6822 2.85182 99.2838 4.16908 98.487 6.80359L94.6852 19.3739C93.8983 21.9756 93.5049 23.2765 92.7736 23.815C92.0794 24.3263 91.1846 24.4797 90.3598 24.2287C89.4909 23.9643 88.6868 22.8686 87.0787 20.6773Z" fill="black"/>
</g>
</g>
<defs>
<filter id="filter0_i" x="0" y="5.85669" width="139.203" height="136.143" filterUnits="userSpaceOnUse" color-interpolation-filters="sRGB">
<feFlood flood-opacity="0" result="BackgroundImageFix"/>
<feBlend mode="normal" in="SourceGraphic" in2="BackgroundImageFix" result="shape"/>
<feColorMatrix in="SourceAlpha" type="matrix" values="0 0 0 0 0 0 0 0 0 0 0 0 0 0 0 0 0 0 127 0" result="hardAlpha"/>
<feOffset dx="-7" dy="4"/>
<feGaussianBlur stdDeviation="5"/>
<feComposite in2="hardAlpha" operator="arithmetic" k2="-1" k3="1"/>
<feColorMatrix type="matrix" values="0 0 0 0 1 0 0 0 0 1 0 0 0 0 1 0 0 0 0.15 0"/>
<feBlend mode="normal" in2="shape" result="effect1_innerShadow"/>
</filter>
<filter id="filter1_i" x="71.9233" y="0.247314" width="72.2672" height="69.4806" filterUnits="userSpaceOnUse" color-interpolation-filters="sRGB">
<feFlood flood-opacity="0" result="BackgroundImageFix"/>
<feBlend mode="normal" in="SourceGraphic" in2="BackgroundImageFix" result="shape"/>
<feColorMatrix in="SourceAlpha" type="matrix" values="0 0 0 0 0 0 0 0 0 0 0 0 0 0 0 0 0 0 127 0" result="hardAlpha"/>
<feOffset dx="-7" dy="4"/>
<feGaussianBlur stdDeviation="5"/>
<feComposite in2="hardAlpha" operator="arithmetic" k2="-1" k3="1"/>
<feColorMatrix type="matrix" values="0 0 0 0 1 0 0 0 0 1 0 0 0 0 1 0 0 0 0.15 0"/>
<feBlend mode="normal" in2="shape" result="effect1_innerShadow"/>
</filter>
<clipPath id="clip0">
<rect width="144" height="144" fill="white"/>
</clipPath>
</defs>
</svg>
